<mxfile host="app.diagrams.net" agent="Mozilla/5.0 (Windows NT 10.0; Win64; x64) AppleWebKit/537.36 (KHTML, like Gecko) Chrome/140.0.0.0 Safari/537.36 Edg/140.0.0.0" version="28.2.5">
  <diagram name="PÃ¡gina-1" id="iYPqMkfysZ-vGRSs4PS1">
    <mxGraphModel dx="1430" dy="847" grid="1" gridSize="10" guides="1" tooltips="1" connect="1" arrows="1" fold="1" page="1" pageScale="1" pageWidth="827" pageHeight="1169" math="0" shadow="0">
      <root>
        <mxCell id="0" />
        <mxCell id="1" parent="0" />
        <mxCell id="Falzy4JnLo0zfLjaW_zy-67" value="" style="edgeStyle=orthogonalEdgeStyle;rounded=0;orthogonalLoop=1;jettySize=auto;html=1;" parent="1" source="Falzy4JnLo0zfLjaW_zy-1" edge="1">
          <mxGeometry relative="1" as="geometry">
            <mxPoint x="110" y="230" as="targetPoint" />
          </mxGeometry>
        </mxCell>
        <mxCell id="Falzy4JnLo0zfLjaW_zy-1" value="I" style="ellipse;whiteSpace=wrap;html=1;" parent="1" vertex="1">
          <mxGeometry x="50" y="60" width="120" height="80" as="geometry" />
        </mxCell>
        <mxCell id="Falzy4JnLo0zfLjaW_zy-69" value="" style="edgeStyle=orthogonalEdgeStyle;rounded=0;orthogonalLoop=1;jettySize=auto;html=1;" parent="1" target="Falzy4JnLo0zfLjaW_zy-68" edge="1">
          <mxGeometry relative="1" as="geometry">
            <mxPoint x="170" y="260" as="sourcePoint" />
          </mxGeometry>
        </mxCell>
        <mxCell id="Falzy4JnLo0zfLjaW_zy-71" value="" style="edgeStyle=orthogonalEdgeStyle;rounded=0;orthogonalLoop=1;jettySize=auto;html=1;" parent="1" source="Falzy4JnLo0zfLjaW_zy-68" target="Falzy4JnLo0zfLjaW_zy-70" edge="1">
          <mxGeometry relative="1" as="geometry" />
        </mxCell>
        <mxCell id="Falzy4JnLo0zfLjaW_zy-68" value="ler num" style="shape=parallelogram;perimeter=parallelogramPerimeter;whiteSpace=wrap;html=1;fixedSize=1;" parent="1" vertex="1">
          <mxGeometry x="250" y="230" width="120" height="60" as="geometry" />
        </mxCell>
        <mxCell id="Falzy4JnLo0zfLjaW_zy-81" value="" style="edgeStyle=orthogonalEdgeStyle;rounded=0;orthogonalLoop=1;jettySize=auto;html=1;" parent="1" source="Falzy4JnLo0zfLjaW_zy-70" target="Falzy4JnLo0zfLjaW_zy-80" edge="1">
          <mxGeometry relative="1" as="geometry" />
        </mxCell>
        <mxCell id="Falzy4JnLo0zfLjaW_zy-70" value="cont = cont + 1" style="whiteSpace=wrap;html=1;" parent="1" vertex="1">
          <mxGeometry x="450" y="230" width="120" height="60" as="geometry" />
        </mxCell>
        <mxCell id="Falzy4JnLo0zfLjaW_zy-75" value="cont=0" style="shape=parallelogram;perimeter=parallelogramPerimeter;whiteSpace=wrap;html=1;fixedSize=1;size=-70;" parent="1" vertex="1">
          <mxGeometry x="60" y="230" width="120" height="60" as="geometry" />
        </mxCell>
        <mxCell id="Falzy4JnLo0zfLjaW_zy-85" value="" style="edgeStyle=orthogonalEdgeStyle;rounded=0;orthogonalLoop=1;jettySize=auto;html=1;" parent="1" source="Falzy4JnLo0zfLjaW_zy-80" target="Falzy4JnLo0zfLjaW_zy-84" edge="1">
          <mxGeometry relative="1" as="geometry" />
        </mxCell>
        <mxCell id="Falzy4JnLo0zfLjaW_zy-86" value="nao" style="edgeLabel;html=1;align=center;verticalAlign=middle;resizable=0;points=[];" parent="Falzy4JnLo0zfLjaW_zy-85" vertex="1" connectable="0">
          <mxGeometry x="-0.4837" y="-3" relative="1" as="geometry">
            <mxPoint as="offset" />
          </mxGeometry>
        </mxCell>
        <mxCell id="Falzy4JnLo0zfLjaW_zy-96" value="" style="edgeStyle=orthogonalEdgeStyle;rounded=0;orthogonalLoop=1;jettySize=auto;html=1;" parent="1" source="Falzy4JnLo0zfLjaW_zy-80" edge="1">
          <mxGeometry relative="1" as="geometry">
            <mxPoint x="870" y="400" as="targetPoint" />
          </mxGeometry>
        </mxCell>
        <mxCell id="Falzy4JnLo0zfLjaW_zy-80" value="cont &amp;gt; 10" style="rhombus;whiteSpace=wrap;html=1;" parent="1" vertex="1">
          <mxGeometry x="470" y="360" width="80" height="80" as="geometry" />
        </mxCell>
        <mxCell id="Falzy4JnLo0zfLjaW_zy-93" value="" style="edgeStyle=orthogonalEdgeStyle;rounded=0;orthogonalLoop=1;jettySize=auto;html=1;" parent="1" source="Falzy4JnLo0zfLjaW_zy-84" target="Falzy4JnLo0zfLjaW_zy-92" edge="1">
          <mxGeometry relative="1" as="geometry" />
        </mxCell>
        <mxCell id="Falzy4JnLo0zfLjaW_zy-84" value="num * cont" style="whiteSpace=wrap;html=1;" parent="1" vertex="1">
          <mxGeometry x="450" y="490" width="120" height="60" as="geometry" />
        </mxCell>
        <mxCell id="Falzy4JnLo0zfLjaW_zy-92" value="escrever &quot;resultado =&quot; (num*cont)" style="shape=parallelogram;perimeter=parallelogramPerimeter;whiteSpace=wrap;html=1;fixedSize=1;" parent="1" vertex="1">
          <mxGeometry x="400" y="585" width="220" height="60" as="geometry" />
        </mxCell>
        <mxCell id="Falzy4JnLo0zfLjaW_zy-94" style="edgeStyle=orthogonalEdgeStyle;rounded=0;orthogonalLoop=1;jettySize=auto;html=1;entryX=0.321;entryY=0.966;entryDx=0;entryDy=0;entryPerimeter=0;" parent="1" source="Falzy4JnLo0zfLjaW_zy-92" target="Falzy4JnLo0zfLjaW_zy-68" edge="1">
          <mxGeometry relative="1" as="geometry" />
        </mxCell>
        <mxCell id="Falzy4JnLo0zfLjaW_zy-97" value="f" style="ellipse;whiteSpace=wrap;html=1;" parent="1" vertex="1">
          <mxGeometry x="875" y="360" width="80" height="80" as="geometry" />
        </mxCell>
      </root>
    </mxGraphModel>
  </diagram>
</mxfile>
